<?xml version="1.0" encoding="UTF-8"?>
<svg version="1.1" xmlns="http://www.w3.org/2000/svg" width="500" height="500">
<path d="M0 0 C165 0 330 0 500 0 C500 165 500 330 500 500 C335 500 170 500 0 500 C0 335 0 170 0 0 Z " fill="#000000" transform="translate(0,0)"/>
<path d="M0 0 C9.57 0 19.14 0 29 0 C31.99417536 7.38099043 34.94356739 14.72682416 37.5625 22.25 C39.37614327 27.42353368 41.48650411 32.33557571 43.81640625 37.29296875 C45.47599784 41.08866833 46.69753028 44.99058459 47.95703125 48.93359375 C49.40380576 53.18721917 51.16076384 57.28671299 52.94921875 61.40625 C53.84171205 63.60928178 54.50247056 65.68184084 55 68 C55.66 68 56.32 68 57 68 C57.24105469 66.75863281 57.48210937 65.51726562 57.73046875 64.23828125 C59.04289223 58.34447431 61.15004442 52.81432033 63.3125 47.1875 C63.91807739 45.58974731 63.91807739 45.58974731 64.53588867 43.9597168 C66.53897734 38.70286778 68.59489627 33.4822887 70.8125 28.3125 C72.90108782 23.44151265 74.45921621 18.49344355 75.91015625 13.3984375 C77.3690825 8.84909757 79.22566342 4.43584145 81 0 C90.24 0 99.48 0 109 0 C109 1.32 109 2.64 109 4 C105.7 4 102.4 4 99 4 C99 32.38 99 60.76 99 90 C102.3 90 105.6 90 109 90 C109 91.32 109 92.64 109 94 C96.46 94 83.92 94 71 94 C71 93.01 71 92.02 71 91 C74.63 91 78.26 91 82 91 C81.67 65.26 81.34 39.52 81 13 C72.19442518 36.9668053 72.19442518 36.9668053 63.75390625 61.046875 C62.29887905 65.24290099 60.67172856 69.35054849 59.00170898 73.46484375 C57.28669682 77.80524988 55.77255155 82.21417469 54.25 86.625 C53.93417969 87.53378906 53.61835937 88.44257813 53.29296875 89.37890625 C52.52656329 91.58522501 51.76226851 93.7922493 51 96 C50.01 96 49.02 96 48 96 C46.15684424 91.43421315 44.32017654 86.87320876 42.625 82.25 C41.30015261 78.66721379 39.78245712 75.18620502 38.25 71.6875 C35.42128145 65.15752284 32.92755877 58.53836972 30.53613281 51.83666992 C28.86406457 47.18901279 27.00196006 42.68828313 24.96386719 38.18969727 C23.4740485 34.80515222 22.20328985 31.34824545 20.9375 27.875 C20.44829533 26.53844612 19.95742071 25.20250223 19.46484375 23.8671875 C19.14954712 23.00262939 19.14954712 23.00262939 18.82788086 22.12060547 C17.62883145 19.04925686 16.29879331 16.03051773 15 13 C14.67 38.74 14.34 64.48 14 91 C17.3 91 20.6 91 24 91 C24 91.99 24 92.98 24 94 C16.08 94 8.16 94 0 94 C0 92.68 0 91.36 0 90 C3.3 90 6.6 90 10 90 C10 61.62 10 33.24 10 4 C6.7 4 3.4 4 0 4 C0 2.68 0 1.36 0 0 Z " fill="#F3F3F3" transform="translate(70,200)"/>
<path d="M0 0 C1.32 0 2.64 0 4 0 C7.68368701 8.75340453 10.62685579 17.73074559 13.57006836 26.7512207 C16.13682342 34.60241305 18.83344874 42.36985254 21.8828125 50.04931641 C23.47015399 54.24175724 24.74754413 58.51264711 26.03515625 62.8046875 C28.39726036 70.62736428 31.01384373 78.30400891 34.16796875 85.84375 C34.9543348 87.88165639 35.52102719 89.87123197 36 92 C38.64 92.33 41.28 92.66 44 93 C44 93.99 44 94.98 44 96 C32.45 96 20.9 96 9 96 C9 95.01 9 94.02 9 93 C11.97 93 14.94 93 18 93 C17.78794922 92.37955811 17.57589844 91.75911621 17.35742188 91.11987305 C16.40024341 88.31065943 15.45004925 85.49913223 14.5 82.6875 C14.16613281 81.71103516 13.83226562 80.73457031 13.48828125 79.72851562 C13.17246094 78.79072266 12.85664063 77.85292969 12.53125 76.88671875 C12.23798828 76.02264404 11.94472656 75.15856934 11.64257812 74.26831055 C11 72 11 72 11 69 C0.77 69 -9.46 69 -20 69 C-20.99 73.95 -20.99 73.95 -22 79 C-22.67585645 81.55049478 -23.38049756 84.09369171 -24.125 86.625 C-24.47820312 87.83414063 -24.83140625 89.04328125 -25.1953125 90.2890625 C-25.46085937 91.18367188 -25.72640625 92.07828125 -26 93 C-23.36 93 -20.72 93 -18 93 C-18 93.99 -18 94.98 -18 96 C-24.6 96 -31.2 96 -38 96 C-38 95.01 -38 94.02 -38 93 C-35.36 93 -32.72 93 -30 93 C-29.86464844 91.61167969 -29.86464844 91.61167969 -29.7265625 90.1953125 C-28.96272247 84.88569276 -27.1160299 79.92970764 -25.375 74.875 C-24.64968055 72.734395 -23.92442132 70.5937696 -23.19921875 68.453125 C-22.83231934 67.37740234 -22.46541992 66.30167969 -22.08740234 65.19335938 C-20.43586462 60.34331146 -18.81035288 55.48470509 -17.1875 50.625 C-16.91019043 49.80112793 -16.63288086 48.97725586 -16.34716797 48.12841797 C-14.98170326 44.05026321 -13.6886439 39.96593281 -12.48828125 35.8359375 C-11.27874316 31.73948678 -9.69193935 27.92385934 -8 24 C-7.08645623 21.18867782 -6.28976718 18.34825712 -5.5 15.5 C-4.01002071 10.12646179 -2.30161196 5.08495666 0 0 Z " fill="#F7F7F7" transform="translate(317,198)"/>
<path d="M0 0 C3.52619647 2.50062407 6.12196444 4.46957401 7.67578125 8.60546875 C7.94140625 11.04296875 7.94140625 11.04296875 7.92578125 13.60546875 C7.93351562 14.87390625 7.93351562 14.87390625 7.94140625 16.16796875 C7.65649742 18.78242628 7.07433397 20.3902786 5.67578125 22.60546875 C1.25433155 25.33636415 -2.444156 24.62870771 -7.32421875 23.60546875 C-9.96786954 21.72932948 -10.27663156 20.74823032 -11.32421875 17.60546875 C-11.89008701 11.38091785 -11.89008701 11.38091785 -9.63671875 8.29296875 C-7.2655756 6.5626751 -5.10141556 5.53120102 -2.32421875 4.60546875 C-9.72439651 0.64723414 -18.58237153 -0.45861927 -26.82421875 1.29296875 C-30.96719458 2.84658469 -34.29203809 4.54110744 -36.32421875 8.60546875 C-36.49893723 10.70495476 -36.59139727 12.81171283 -36.63671875 14.91796875 C-36.67410156 16.04847656 -36.71148437 17.17898437 -36.75 18.34375 C-36.22921541 22.33324659 -35.160074 23.79360551 -32.32421875 26.60546875 C-29.87132438 28.40723199 -29.87132438 28.40723199 -27.07421875 29.91796875 C-26.01976562 30.51222656 -24.9653125 31.10648438 -23.87890625 31.71875 C-20.03935437 33.79045846 -16.11873372 35.69096485 -12.19921875 37.60546875 C6.18194998 46.61780621 6.18194998 46.61780621 10.7421875 55.73828125 C11.95012702 59.44802018 12.09968449 62.99101547 12.11328125 66.85546875 C12.11908203 67.98456665 12.11908203 67.98456665 12.125 69.13647461 C11.9978645 75.27142454 10.55458894 79.74310626 6.67578125 84.60546875 C6.01578125 84.60546875 5.35578125 84.60546875 4.67578125 84.60546875 C4.44632812 85.21003906 4.216875 85.81460938 3.98046875 86.4375 C2.30881687 89.21524489 0.71357123 89.9230067 -2.19921875 91.29296875 C-3.49472656 91.91751953 -3.49472656 91.91751953 -4.81640625 92.5546875 C-15.15428951 96.88629279 -29.0598803 95.57039371 -39.32421875 91.60546875 C-44.46902094 89.48044176 -47.18501744 85.63477469 -49.32421875 80.60546875 C-50.1502546 76.69336295 -50.1202092 73.3836676 -48.47265625 69.703125 C-46.82391194 67.31973611 -45.20126992 65.77951392 -42.31640625 65.20703125 C-39.09437943 65.14758426 -36.37561042 65.58833819 -33.32421875 66.60546875 C-30.57295347 69.51246603 -29.87264638 71.6344028 -29.82421875 75.60546875 C-29.93551315 79.37834888 -30.03412523 80.26702631 -32.57421875 83.23046875 C-35.32421875 84.60546875 -35.32421875 84.60546875 -39.32421875 84.60546875 C-39.32421875 85.26546875 -39.32421875 85.92546875 -39.32421875 86.60546875 C-30.10512304 89.82544397 -18.60180452 92.09186746 -9.19921875 88.35546875 C-2.90375337 84.66264464 -2.90375337 84.66264464 0.67578125 78.60546875 C1.33530363 73.57661059 1.24687208 71.58703112 -1.32421875 67.16796875 C-9.3304283 58.87852065 -21.94737734 54.1484963 -32.23828125 49.30859375 C-38.31321979 45.95584286 -42.35395094 41.95524128 -45.32421875 35.60546875 C-45.62457031 34.97511719 -45.92492187 34.34476563 -46.234375 33.6953125 C-49.47134186 26.12231561 -49.06125598 18.78670085 -46.4921875 11.03125 C-43.08207626 3.94871127 -36.55927276 -0.70418554 -29.32421875 -3.39453125 C-19.91280084 -6.35297274 -8.42572071 -5.05543243 0 0 Z " fill="#F5F5F5" transform="translate(417.32421875,201.39453125)"/>
<path d="M0 0 C12.21 0 24.42 0 37 0 C37 0.99 37 1.98 37 3 C33.7 3 30.4 3 27 3 C27.08461018 11.85846411 27.17957263 20.71674059 27.28752708 29.57495117 C27.33734141 33.68876819 27.38367198 37.80256137 27.421875 41.91650391 C27.45891657 45.89127225 27.50532606 49.86583361 27.55806351 53.84042358 C27.5765077 55.35212551 27.59165194 56.86387164 27.60334396 58.37564087 C27.45250411 72.80439596 27.45250411 72.80439596 33.48046875 85.5234375 C38.22019756 90.12913799 43.80812356 90.19298962 50.0625 90.3125 C55.08032799 90.21009535 59.31593456 89.78440588 64 88 C64 87.34 64 86.68 64 86 C64.5775 85.505 65.155 85.01 65.75 84.5 C72.9467314 76.50363178 72.60356418 66.30792364 72.609375 56.1484375 C72.62438394 54.63813529 72.64111671 53.12784932 72.65948486 51.61758423 C72.70286692 47.675427 72.723092 43.73349105 72.73822021 39.7911377 C72.75789748 35.7551582 72.79985489 31.71941405 72.83984375 27.68359375 C72.91482936 19.78912461 72.96531129 11.89474866 73 4 C69.7 4 66.4 4 63 4 C63 2.68 63 1.36 63 0 C71.25 0 79.5 0 88 0 C88 1.32 88 2.64 88 4 C84.7 4 81.4 4 78 4 C78.00888245 4.785457 78.01776489 5.570914 78.0269165 6.38017273 C78.10756803 13.83717378 78.16821827 21.29395887 78.20724869 28.7512846 C78.22799027 32.58381167 78.25605657 36.41597386 78.30175781 40.24829102 C78.3457024 43.95715148 78.36923763 47.66566437 78.37950897 51.3747654 C78.38681435 52.77915724 78.40107578 54.18353333 78.42292023 55.58777428 C78.59170513 66.90352161 77.60718797 79.00968694 70 88 C63.30960296 94.69039704 55.260654 96.39196876 46.125 96.4375 C36.61270945 96.31160059 26.41270895 95.55076604 19 89 C9.62152873 78.92461473 9.71032713 69.2768689 9.8046875 56.125 C9.80842328 54.58943873 9.81126758 53.05387506 9.81326294 51.51831055 C9.82085497 47.50044025 9.84046475 43.48271734 9.8626709 39.46490479 C9.88322541 35.35552971 9.89228509 31.24613055 9.90234375 27.13671875 C9.92371537 19.09107863 9.957797 11.04555771 10 3 C6.7 3 3.4 3 0 3 C0 2.01 0 1.02 0 0 Z " fill="#F3F3F3" transform="translate(187,200)"/>
<path d="M0 0 C2 1 2 1 2.7043457 2.83251953 C3.0305188 4.03303955 3.0305188 4.03303955 3.36328125 5.2578125 C4.50797841 9.3049545 5.72949031 13.30883886 7.04296875 17.3046875 C7.39423828 18.38234375 7.74550781 19.46 8.10742188 20.5703125 C8.83552677 22.79807649 9.56737974 25.02461853 10.30273438 27.25 C10.65013672 28.31992188 10.99753906 29.38984375 11.35546875 30.4921875 C11.82956177 31.93634033 11.82956177 31.93634033 12.31323242 33.40966797 C13 36 13 36 13 40 C4.42 40 -4.16 40 -13 40 C-12.24107179 36.20535896 -11.30664132 33.05319329 -9.92724609 29.484375 C-7.89747422 24.04599727 -6.13655299 18.50997824 -4.3125 13 C-3.89677734 11.74832031 -3.48105469 10.49664062 -3.05273438 9.20703125 C-2.03378554 6.1384727 -1.01624684 3.06945423 0 0 Z " fill="#0C0C0C" transform="translate(312,223)"/>
<path d="M0 0 C0.66 0 1.32 0 2 0 C3.1932188 27.66300071 3.10525509 55.3162916 3 83 C6.3 83 9.6 83 13 83 C13 83.99 13 84.98 13 86 C5.08 86 -2.84 86 -11 86 C-11 85.01 -11 84.02 -11 83 C-7.37 83 -3.74 83 0 83 C0 55.61 0 28.22 0 0 Z " fill="#F9F9F9" transform="translate(81,208)"/>
<path d="M0 0 C1.32 0.66 2.64 1.32 4 2 C1.01992462 11.16188463 -2.22757883 20.21329467 -5.5625 29.25 C-6.28797188 31.22270216 -7.01296926 33.1955783 -7.73796082 35.16845703 C-8.42085322 37.02232896 -9.10842609 38.8744747 -9.79614258 40.7265625 C-10.51969761 42.69399829 -11.22975417 44.66658818 -11.9128418 46.6484375 C-13.72247857 51.84510432 -13.72247857 51.84510432 -16.6875 53.5 C-17.8321875 53.7475 -17.8321875 53.7475 -19 54 C-15.64046885 41.94521177 -11.25010842 30.12060845 -6.3125 18.625 C-3.71934025 12.56284508 -1.82726982 6.32909099 0 0 Z " fill="#E4E4E4" transform="translate(147,210)"/>
<path d="M0 0 C0.33 0.66 0.66 1.32 1 2 C1.66 2 2.32 2 3 2 C2.31806271 7.15971828 0.85880024 11.84717648 -0.8125 16.75 C-1.07949707 17.5426123 -1.34649414 18.33522461 -1.62158203 19.15185547 C-3.55864974 24.84657828 -5.63650375 30.46663818 -8 36 C-8.99 36 -9.98 36 -11 36 C-10.54606725 31.55145908 -9.60931472 28.03024693 -7.80444336 23.96020508 C-6.39302802 20.52097783 -5.43886185 16.95084107 -4.4375 13.375 C-3.15086007 8.81798428 -1.87039815 4.36138923 0 0 Z " fill="#E8E8E8" transform="translate(308,224)"/>
<path d="M0 0 C0.33 0.66 0.66 1.32 1 2 C1.66 2 2.32 2 3 2 C2.40075776 6.19469571 1.42500059 10.00999834 0 14 C-0.99 13.34 -1.98 12.68 -3 12 C-2.49202991 7.6822542 -1.80317221 3.96697886 0 0 Z " fill="#D8D8D8" transform="translate(308,224)"/>
<path d="M0 0 C0.33 0.66 0.66 1.32 1 2 C1.66 2 2.32 2 3 2 C2.52651586 6.1666604 1.95303159 8.92884715 -1 12 C-1.66 12 -2.32 12 -3 12 C-2.49202991 7.6822542 -1.80317221 3.96697886 0 0 Z " fill="#D4D4D4" transform="translate(300,248)"/>
<path d="M0 0 C1.32 0.66 2.64 1.32 4 2 C3.01 5.3 2.02 8.6 1 12 C-0.32 11.34 -1.64 10.68 -3 10 C-2.01 6.7 -1.02 3.4 0 0 Z " fill="#D7D7D7" transform="translate(147,210)"/>
<path d="M0 0 C-0.46319911 4.72463088 -1.09891706 8.17057052 -4 12 C-4.66 12 -5.32 12 -6 12 C-5.32823171 8.19331304 -4.39463134 4.60963407 -3 1 C-1 0 -1 0 0 0 Z " fill="#F6F6F6" transform="translate(147,219)"/>
<path d="M0 0 C0.66 0.99 1.32 1.98 2 3 C-0.97 5.97 -3.94 8.94 -7 12 C-7.99 11.34 -8.98 10.68 -10 10 C-9.0925 9.46375 -8.185 8.9275 -7.25 8.375 C-3.79561944 6.09936542 -2.08948315 3.53604841 0 0 Z " fill="#303030" transform="translate(260,282)"/>
<path d="M0 0 C1.36118461 2.24195113 2.06138028 3.47826762 1.75 6.125 C1 8 1 8 -1 10 C0.98 10.495 0.98 10.495 3 11 C1.35 11 -0.3 11 -2 11 C-1.125 3.375 -1.125 3.375 0 0 Z " fill="#404040" transform="translate(293,280)"/>
<path d="M0 0 C1.8125 1.5625 1.8125 1.5625 3 3 C0.8125 3.75 0.8125 3.75 -2 4 C-4.8125 2.0625 -4.8125 2.0625 -7 0 C-4.26634878 -1.36682561 -2.89333621 -0.84683011 0 0 Z " fill="#191919" transform="translate(413,204)"/>
<path d="M0 0 C1.5625 1.125 1.5625 1.125 3 3 C2.6875 6.1875 2.6875 6.1875 2 9 C1.01 8.34 0.02 7.68 -1 7 C-0.67 4.69 -0.34 2.38 0 0 Z " fill="#BABABA" transform="translate(306,229)"/>
</svg>
